<?xml version="1.0" encoding="UTF-8"?>
<!DOCTYPE svg PUBLIC "-//W3C//DTD SVG 1.1//EN" "http://www.w3.org/Graphics/SVG/1.1/DTD/svg11.dtd">
<svg xmlns="http://www.w3.org/2000/svg" version="1.1" width="512px" height="512px" style="shape-rendering:geometricPrecision; text-rendering:geometricPrecision; image-rendering:optimizeQuality; fill-rule:evenodd; clip-rule:evenodd" xmlns:xlink="http://www.w3.org/1999/xlink">
<g><path style="opacity:0.972" fill="#000000" d="M 243.5,41.5 C 329.668,40.4876 395.502,76.1543 441,148.5C 479.837,222.068 478.837,295.068 438,367.5C 398.036,429.087 341.203,462.921 267.5,469C 181.303,470.496 115.47,434.996 70,362.5C 31.1631,288.932 32.1631,215.932 73,143.5C 113.168,81.9859 170.002,47.9859 243.5,41.5 Z M 240.5,85.5 C 304.235,82.6251 355.401,106.292 394,156.5C 427.62,206.736 434.286,260.403 414,317.5C 386.555,380.329 338.721,416.162 270.5,425C 206.742,428.364 155.576,404.864 117,354.5C 83.3802,304.264 76.7136,250.597 97,193.5C 124.669,130.745 172.502,94.7451 240.5,85.5 Z"/></g>
<g><path style="opacity:0.968" fill="#000000" d="M 335.5,176.5 C 346.58,186.076 357.247,196.243 367.5,207C 320.653,254.014 273.653,300.847 226.5,347.5C 198.68,320.18 171.014,292.68 143.5,265C 153.681,254.652 164.014,244.486 174.5,234.5C 191.833,251.5 209.167,268.5 226.5,285.5C 263.188,249.479 299.521,213.146 335.5,176.5 Z"/></g>
</svg>
